:SAMPLES-PER-SECOND 30
:FRAME-RANGE 1-3358
:FULLY-SPECIFIED
:DEGREES
735
root  43.427 39.3822 24.8179 -175.547 -42.3087 -178.493
RightUpLeg  -18.7324 -2.57823 -2.74012
RightLeg  16.622 1.74001 0.323802
RightFoot  -2.60105 -0.448428 5.63025
RightToes  -1.11029e-010 1.2921e-014 -6.02303e-014
Spine  -0.100242 -0.116077 5.95398
Spine1  5.69572 0.243268 -2.1247
HEad  0.622769 -19.1268 3.4187
LeftShoulder1  2.32801 -5.48323 -20.3116
LeftArm  -4.24385 -0.395778 -55.2354
LeftForeArm  36.8857 5.13591 -12.1332
LeftHand  -0.0141221 5.66756 4.12772
RightShoulder  2.34718 6.52248 17.3815
RightArm  -13.7863 52.6279 60.9974
RightForeArm  49.3429 24.6922 2.77616
RightHand  1.45403 -13.2932 -21.3469
LeftUpLeg  -19.6675 -5.17058 4.27422
LeftLeg  21.7389 6.53827 3.19356
LeftFoot  -10.0645 0.114404 -4.85314
LeftToes  -1.90334e-010 -8.83595e-011 4.99953e-011
736
root  43.1801 39.3995 24.7771 -175.402 -43.1131 -178.143
RightUpLeg  -18.2935 -3.19649 -2.80766
RightLeg  15.9687 1.3582 0.235852
RightFoot  -3.10134 -0.502074 6.66828
RightToes  -1.11029e-010 1.2921e-014 -6.02303e-014
Spine  -0.215524 -0.479358 4.73082
Spine1  5.64384 -0.322658 -1.26072
HEad  0.732345 -19.408 4.40726
LeftShoulder1  2.29124 -5.37237 -20.2198
LeftArm  -4.48982 -0.0167822 -55.2123
LeftForeArm  36.9955 5.3061 -12.049
LeftHand  -0.0152586 5.67006 3.99645
RightShoulder  2.34182 6.05269 18.6163
RightArm  -11.8817 48.9177 62.8448
RightForeArm  49.133 24.9215 2.83129
RightHand  1.64822 -13.0239 -24.787
LeftUpLeg  -19.871 -3.61806 4.2371
LeftLeg  22.0379 5.29637 2.68673
LeftFoot  -12.1842 0.0283904 -6.05443
LeftToes  -1.90334e-010 -8.83595e-011 4.99953e-011
737
root  42.9184 39.4034 24.7726 -175.2 -43.8912 -177.973
RightUpLeg  -18.0009 -4.37077 -3.04168
RightLeg  15.6502 1.59708 0.420721
RightFoot  -3.59187 -0.509529 7.15137
RightToes  -1.11029e-010 1.2921e-014 -6.02303e-014
Spine  -0.468974 -0.840908 3.50303
Spine1  5.73351 -0.86055 -0.515609
HEad  1.08401 -19.8377 4.92127
LeftShoulder1  2.2827 -5.39403 -20.044
LeftArm  -4.57494 0.479884 -55.1584
LeftForeArm  36.786 5.30583 -12.0294
LeftHand  -0.0148699 5.76908 4.05404
RightShoulder  2.35258 5.61705 20.061
RightArm  -11.3225 45.6047 64.4525
RightForeArm  47.6032 22.1486 2.80218
RightHand  1.53128 -11.7204 -27.593
LeftUpLeg  -20.0915 -0.872324 3.91814
LeftLeg  22.575 6.40228 3.2478
LeftFoot  -13.6706 -0.0565495 -6.8009
LeftToes  -1.90334e-010 -8.83595e-011 4.99953e-011
738
root  42.6399 39.3668 24.8154 -175.505 -44.6188 -177.316
RightUpLeg  -17.7124 -4.65584 -3.00109
RightLeg  15.6077 1.13661 0.319213
RightFoot  -4.06802 -0.523836 7.79306
RightToes  -1.11029e-010 1.2921e-014 -6.02303e-014
Spine  -0.813348 -1.05623 3.00915
Spine1  6.13757 -1.18354 -0.0972007
HEad  1.25253 -20.4517 5.14197
LeftShoulder1  2.28221 -5.44321 -19.8797
LeftArm  -4.54302 0.463284 -55.2365
LeftForeArm  37.1715 5.61739 -12.0532
LeftHand  -0.0133716 5.78269 4.01911
RightShoulder  2.43976 5.63324 21.0585
RightArm  -14.4254 42.4173 65.0295
RightForeArm  48.544 17.5542 3.75964
RightHand  1.14099 -9.91367 -28.7421
LeftUpLeg  -20.4596 1.81753 3.97318
LeftLeg  23.9559 10.9694 5.615
LeftFoot  -14.2196 -0.0954796 -7.18108
LeftToes  -1.90334e-010 -8.83595e-011 4.99953e-011
739
root  42.3407 39.3186 24.8902 -176.197 -45.0352 -176.6
RightUpLeg  -17.2102 -4.72505 -2.9627
RightLeg  15.7363 0.855937 0.206582
RightFoot  -4.52329 -0.535924 8.46328
RightToes  -1.11029e-010 1.2921e-014 -6.02303e-014
Spine  -1.19793 -1.07939 2.77459
Spine1  6.91924 -1.19155 -0.148898
HEad  1.35823 -21.2719 5.41739
LeftShoulder1  2.28127 -5.42316 -19.9324
LeftArm  -4.20465 0.0123388 -55.2495
LeftForeArm  37.3706 5.93518 -12.1992
LeftHand  -0.0105502 5.88412 3.98205
RightShoulder  2.56242 5.81627 21.9142
RightArm  -17.2998 40.9673 65.6196
RightForeArm  55.0311 9.57612 4.76798
RightHand  1.30439 -9.96732 -32.1335
LeftUpLeg  -20.3427 3.90674 4.09933
LeftLeg  24.5479 13.5908 7.01497
LeftFoot  -12.3659 0.0126064 -6.86228
LeftToes  -1.90334e-010 -8.83595e-011 4.99953e-011
740
root  42.0081 39.178 25.0147 -176.773 -45.3452 -176.274
RightUpLeg  -17.2514 -3.73206 -3.42433
RightLeg  17.2595 -0.0296935 -0.214498
RightFoot  -5.72371 -0.509058 9.55831
RightToes  -1.11029e-010 1.2921e-014 -6.02303e-014
Spine  -1.35564 -0.878077 2.73412
Spine1  7.4522 -0.815422 -0.779373
HEad  1.62771 -22.5606 5.5238
LeftShoulder1  2.26662 -5.31945 -20.0873
LeftArm  -3.77169 -1.05756 -55.4906
LeftForeArm  37.7706 6.75361 -12.3777
LeftHand  -0.00875614 5.96979 3.86341
RightShoulder  2.7611 6.44462 22.1648
RightArm  -17.1536 40.3158 66.698
RightForeArm  55.1401 1.46767 3.23567
RightHand  1.21453 -9.60417 -32.4723
LeftUpLeg  -20.4919 4.71667 3.74405
LeftLeg  25.3684 11.0847 6.01056
LeftFoot  -11.5743 0.0583771 -5.38216
LeftToes  -1.90334e-010 -8.83595e-011 4.99953e-011
741
root  41.6539 38.9573 25.165 -177.178 -46.0202 -176.439
RightUpLeg  -17.8971 -3.40041 -4.30696
RightLeg  20.4478 -0.876004 -0.574101
RightFoot  -7.16061 -0.421773 10.1916
RightToes  -1.11029e-010 1.2921e-014 -6.02303e-014
Spine  -1.37657 -0.365321 3.08616
Spine1  8.07419 0.063236 -2.11138
HEad  1.35267 -25.147 6.16979
LeftShoulder1  2.23452 -5.2869 -19.7929
LeftArm  -3.42864 -2.89054 -56.4721
LeftForeArm  38.8185 7.69523 -12.5259
LeftHand  -0.00557723 6.13163 3.67583
RightShoulder  2.95625 7.08555 22.3114
RightArm  -17.7642 39.9644 67.0557
RightForeArm  53.7836 -4.70846 1.69143
RightHand  1.3913 -10.0585 -33.4695
LeftUpLeg  -20.8527 3.16874 3.14465
LeftLeg  27.2645 11.5767 6.74702
LeftFoot  -11.1434 0.074333 -4.37457
LeftToes  -1.90334e-010 -8.83595e-011 4.99953e-011
742
root  41.3323 38.7001 25.2614 -177.236 -47.0229 -177.282
RightUpLeg  -18.7771 -2.06315 -5.64873
RightLeg  24.5729 -2.71784 -1.57605
RightFoot  -8.72652 -0.307466 10.8342
RightToes  -1.11029e-010 1.2921e-014 -6.02303e-014
Spine  -1.22683 0.268222 2.74436
Spine1  8.47838 1.09873 -3.48784
HEad  1.00932 -28.3825 7.1012
LeftShoulder1  2.17346 -5.17014 -19.4032
LeftArm  -3.20262 -4.78828 -57.543
LeftForeArm  40.0891 7.69252 -12.6789
LeftHand  -8.65469e-006 6.38313 3.5563
RightShoulder  3.07396 7.44837 22.458
RightArm  -19.4029 39.8056 67.2175
RightForeArm  53.2923 -5.34995 0.368983
RightHand  1.7575 -10.9172 -35.4861
LeftUpLeg  -21.1514 2.89778 2.03502
LeftLeg  29.3081 10.902 6.90242
LeftFoot  -11.455 0.0645699 -4.10797
LeftToes  -1.90334e-010 -8.83595e-011 4.99953e-011
743
root  41.0524 38.4771 25.3104 -177.364 -48.8212 -177.989
RightUpLeg  -19.4096 -1.3679 -6.59669
RightLeg  28.5988 -5.04768 -3.2024
RightFoot  -9.84148 -0.220624 11.69
RightToes  -1.11029e-010 1.2921e-014 -6.02303e-014
Spine  -1.13128 0.434129 2.14081
Spine1  8.69326 1.53672 -4.4993
HEad  0.990922 -31.3029 8.02403
LeftShoulder1  2.10413 -4.95975 -19.2023
LeftArm  -2.79457 -5.89722 -57.8138
LeftForeArm  40.0781 7.69808 -12.7195
LeftHand  0.00467899 6.54439 3.60398
RightShoulder  3.12945 7.55471 22.7047
RightArm  -21.0068 39.1334 67.4143
RightForeArm  51.1995 -5.22817 -0.692084
RightHand  1.8522 -11.1736 -35.7127
LeftUpLeg  -21.396 3.51449 1.03178
LeftLeg  31.0908 8.83144 6.06576
LeftFoot  -12.4449 0.0419367 -3.39038
LeftToes  -1.90334e-010 -8.83595e-011 4.99953e-011
744
root  40.7776 38.3506 25.3577 -178.093 -51.2214 -177.813
RightUpLeg  -19.6832 -1.78126 -6.75836
RightLeg  32.0547 -7.1214 -5.02044
RightFoot  -10.026 -0.217895 12.9701
RightToes  -1.11029e-010 1.2921e-014 -6.02303e-014
Spine  -1.22194 0.174066 1.90454
Spine1  8.98194 1.37247 -4.9666
HEad  1.1125 -33.6082 8.82315
LeftShoulder1  2.13104 -4.99572 -19.4327
LeftArm  -2.60862 -6.33346 -57.2684
LeftForeArm  39.2918 7.32613 -12.6442
LeftHand  0.00254084 6.39169 3.79228
RightShoulder  3.09719 7.50134 22.5381
RightArm  -21.9587 38.3819 67.7554
RightForeArm  50.0193 -5.15089 -1.32937
RightHand  1.96229 -11.5885 -35.3314
LeftUpLeg  -21.4196 3.14919 0.67028
LeftLeg  32.2957 7.21407 5.25513
LeftFoot  -13.1912 0.0394256 -2.4565
LeftToes  -1.90334e-010 -8.83595e-011 4.99953e-011
745
root  40.5206 38.3173 25.3956 -179.041 -53.2735 -177.396
RightUpLeg  -19.6022 -2.90217 -6.69228
RightLeg  34.6144 -8.45873 -6.47405
RightFoot  -9.54521 -0.283971 13.8942
RightToes  -1.11029e-010 1.2921e-014 -6.02303e-014
Spine  -1.35939 -0.0179821 1.70424
Spine1  9.27855 1.26171 -5.36351
HEad  1.62388 -35.8861 9.46145
LeftShoulder1  2.17014 -5.10209 -19.5838
LeftArm  -2.54679 -6.70207 -56.8029
LeftForeArm  38.238 6.7096 -12.6462
LeftHand  0.00804902 6.34307 4.519
RightShoulder  3.05869 7.41697 22.3952
RightArm  -22.8088 37.7209 67.5108
RightForeArm  49.6724 -5.07909 -1.79843
RightHand  1.91386 -11.4688 -35.1581
LeftUpLeg  -20.8664 1.62119 0.544
LeftLeg  32.6741 6.82582 5.06234
LeftFoot  -13.6575 0.040005 -2.07188
LeftToes  -1.90334e-010 -8.83595e-011 4.99953e-011
746
root  40.3175 38.3525 25.4202 179.999 -54.4332 -176.768
RightUpLeg  -19.7474 -3.18116 -6.23482
RightLeg  36.6766 -9.93982 -8.10703
RightFoot  -8.56941 -0.383567 13.378
RightToes  -1.11029e-010 1.2921e-014 -6.02303e-014
Spine  -1.51094 0.019159 1.50872
Spine1  9.43304 1.36155 -5.58342
HEad  2.39054 -37.7787 10.131
LeftShoulder1  2.13977 -5.00948 -19.4999
LeftArm  -2.70111 -7.008 -56.5744
LeftForeArm  37.8085 6.3324 -12.5426
LeftHand  0.00849212 6.30697 4.70282
RightShoulder  3.05944 7.44206 22.3319
RightArm  -24.1396 37.0881 66.8494
RightForeArm  48.6969 -4.9841 -2.49492
RightHand  1.96123 -11.5159 -35.6962
LeftUpLeg  -20.1339 0.294478 0.637667
LeftLeg  32.4994 7.02986 5.16904
LeftFoot  -13.8828 0.0415739 -1.87849
LeftToes  -1.90334e-010 -8.83595e-011 4.99953e-011
